<?xml version="1.0" encoding="UTF-8"?>
<!DOCTYPE svg PUBLIC "-//W3C//DTD SVG 1.1//EN" "http://www.w3.org/Graphics/SVG/1.1/DTD/svg11.dtd">
<!-- Creator: CorelDRAW 2021 (64-Bit Оценочная версия) -->
<svg xmlns="http://www.w3.org/2000/svg" xml:space="preserve" width="100.377mm" height="53.5073mm" version="1.1" style="shape-rendering:geometricPrecision; text-rendering:geometricPrecision; image-rendering:optimizeQuality; fill-rule:evenodd; clip-rule:evenodd"
viewBox="0 0 5287.08 2818.35"
 xmlns:xlink="http://www.w3.org/1999/xlink"
 xmlns:xodm="http://www.corel.com/coreldraw/odm/2003">
 <defs>
  <style type="text/css">
   <![CDATA[
    .str2 {stroke:#FEFEFE;stroke-width:10.53;stroke-miterlimit:22.9256}
    .str1 {stroke:#2B2A29;stroke-width:10.53;stroke-miterlimit:22.9256}
    .str0 {stroke:#1F1B20;stroke-width:10.53;stroke-miterlimit:22.9256}
    .fil0 {fill:none}
    .fil5 {fill:#FEFEFE}
    .fil3 {fill:#2B2A29}
    .fil1 {fill:#BDBDBD}
    .fil4 {fill:#E38F98}
    .fil6 {fill:#FF9EA8}
    .fil2 {fill:#FFCDD2}
   ]]>
  </style>
 </defs>
 <g id="Слой_x0020_1">
  <metadata id="CorelCorpID_0Corel-Layer"/>
  <circle class="fil0 str0" cx="4304.08" cy="816.58" r="521.32"/>
  <circle class="fil0 str0" cx="4909.47" cy="548.75" r="317.49"/>
  <circle class="fil0 str0" cx="5189.56" cy="353.63" r="92.26"/>
  <path class="fil0 str0" d="M5278.15 327.76c11.57,167.85 -24.71,302.33 -108.83,403.46"/>
  <path class="fil0 str0" d="M5216.16 265.26c-87,-17.36 -194.2,-28.57 -321.6,-33.66"/>
  <path class="fil0 str0" d="M3821.6 407.1c87.25,2.19 187.09,-24.09 299.51,-78.83"/>
  <path class="fil0 str0" d="M4623.66 1228.48c273.99,-178.25 461.97,-353.74 563.93,-526.47"/>
  <path class="fil0 str0" d="M4894.56 231.59c-236.02,-4.79 -423.91,16.65 -563.66,64.34 -65.75,-133.22 -139.32,-192.59 -220.71,-178.09 8.45,87.83 -8.07,167.04 -49.56,237.63"/>
  <path class="fil0 str0" d="M2620.31 8.52c-520.98,133.26 -814.63,496.22 -880.94,1088.88"/>
  <circle class="fil0 str0" cx="1609.49" cy="1678.48" r="149.78"/>
  <ellipse class="fil0 str0" cx="466.87" cy="1832.77" rx="106.64" ry="104.31"/>
  <path class="fil0 str0" d="M1520.18 1558.22c-70.82,65.45 -134.87,99.5 -192.15,102.16 -369.92,11.6 -659.86,34.4 -869.82,68.41"/>
  <path class="fil0 str0" d="M466.87 1937.08c556.81,-28.47 942.44,-64.97 1156.91,-109.5"/>
  <path class="fil0 str0" d="M1576.61 1532.32c92.81,-9.34 161.54,-80.56 206.19,-213.66"/>
  <path class="fil0 str0" d="M1737.83 1075.41c25.61,188.87 20.69,310.85 -14.75,365.95"/>
  <path class="fil0 str0" d="M1583.21 1835.53c204.44,105.3 562.8,169.91 1075.09,193.83"/>
  <circle class="fil0 str0" cx="469.92" cy="2272.52" r="60.61"/>
  <circle class="fil0 str0" cx="941.84" cy="2458.68" r="56.28"/>
  <circle class="fil0 str0" cx="1112.85" cy="2729.28" r="33.55"/>
  <path class="fil0 str0" d="M489.1 2215c-204.48,-85.07 -293.93,-157.64 -268.37,-217.73"/>
  <path class="fil0 str0" d="M662.97 1926.3c-371.41,-2.13 -512.24,45.82 -422.46,143.86"/>
  <path class="fil0 str0" d="M924.14 2512.12c-233.15,-85.37 -388.33,-145.38 -465.53,-180.05 -604.32,-224.26 -604.46,-425.35 -0.4,-603.28"/>
  <path class="fil0 str0" d="M1142.49 2745.01c176.96,-99.78 115.47,-213.2 -184.46,-340.24 -176.55,-60.04 -331.68,-122.86 -465.38,-188.45"/>
  <path class="fil0 str0" d="M1095.54 2700.53c100.54,-65.11 43.41,-127.92 -171.41,-188.41"/>
  <path class="fil0 str0" d="M1079.3 2729.28c-64.98,101.35 -47.85,110.83 51.39,28.43"/>
  <circle class="fil0 str0" cx="4405.13" cy="1878.05" r="145.79"/>
  <path class="fil0 str0" d="M4667.72 1190.12c-137.92,194.27 -178.9,409.61 -122.92,646.03"/>
  <ellipse class="fil0 str0" cx="4744.95" cy="2090.61" rx="62.56" ry="54.33"/>
  <path class="fil0 str0" d="M4744.95 2036.27c-84.56,-3.87 -151.27,-70.58 -200.14,-200.13"/>
  <path class="fil0 str0" d="M4697.75 2126.28c26.74,148.26 52.8,152.1 78.19,11.54"/>
  <path class="fil0 str0" d="M4697.75 2126.28c-79.81,25.81 -198.86,-13.34 -357.16,-117.46"/>
  <circle class="fil0 str0" cx="4609.17" cy="2149.87" r="27.72"/>
  <path class="fil0 str0" d="M4602.44 2176.77c-27.06,-18.39 -54.34,-41.93 -81.84,-70.62"/>
  <path class="fil0 str0" d="M4627.97 2170.24c19.05,-23.34 42.31,-38 69.79,-43.97"/>
  <circle class="fil0 str0" cx="4933.25" cy="2145.61" r="59.7"/>
  <path class="fil0 str0" d="M4899.48 2194.86c-39.75,-48.69 -80.93,-67.7 -123.54,-57.04"/>
  <path class="fil0 str0" d="M4971.06 2099.4c-69.27,-45.46 -141.96,-66.36 -218.07,-62.69"/>
  <path class="fil0 str0" d="M4989.49 2165.7c63.54,-34.28 57.4,-56.39 -18.44,-66.3"/>
  <circle class="fil0 str0" cx="3968.02" cy="2282.93" r="97.22"/>
  <path class="fil0 str0" d="M3910.01 2360.96c-23.21,133.09 28.53,107.08 155.22,-78.03"/>
  <path class="fil0 str0" d="M3872.37 2300.45c28.28,56.94 39.1,91.13 32.47,102.57"/>
  <circle class="fil0 str0" cx="4279.6" cy="2363.07" r="58.9"/>
  <circle class="fil0 str0" cx="4144.97" cy="2423.84" r="24.78"/>
  <path class="fil0 str0" d="M4168.9 2430.29c17.07,-39.35 39.47,-48.52 67.2,-27.5"/>
  <path class="fil0 str0" d="M4120.19 2423.84c-5.5,-39.17 -46.33,-55.27 -122.47,-48.31"/>
  <path class="fil0 str0" d="M4279.6 2421.97c55.76,32.31 74.81,17.45 57.16,-44.61"/>
  <path class="fil0 str0" d="M4305.95 2310.38c87.45,8.41 98.53,33.78 33.23,76.13"/>
  <path class="fil0 str0" d="M4279.6 2304.17c-106.96,-5.68 -198.66,-42.81 -275.12,-111.39"/>
  <path class="fil0 str0" d="M4003.2 1988.6c-59.61,52.61 -49.16,128.93 31.36,228.96"/>
  <circle class="fil0 str0" cx="2662.83" cy="2132.35" r="72.46"/>
  <path class="fil0 str0" d="M2650.38 2203.74c84.62,100.37 109.99,88.12 76.12,-36.76"/>
  <circle class="fil0 str0" cx="2550.61" cy="2139.09" r="38.1"/>
  <path class="fil0 str0" d="M4340.6 2008.81c-119.03,-113.12 -231.49,-119.86 -337.4,-20.22"/>
  <path class="fil0 str0" d="M2530.89 2171.7c-20.62,166.39 4.45,168.29 75.2,5.71"/>
  <path class="fil0 str0" d="M2585.81 2222.15c14.87,-18.36 36.39,-24.49 64.57,-18.41"/>
  <path class="fil0 str0" d="M2851.42 2255.33c-39.79,-44.71 -80.75,-71.6 -122.88,-80.67"/>
  <path class="fil0 str0" d="M2849 2252.63c30.37,24.26 38.35,15.7 23.94,-25.68"/>
  <circle class="fil0 str0" cx="2462.38" cy="2055.85" r="20.95"/>
  <path class="fil0 str0" d="M2446.69 2069.74c-14.38,-27.11 -39.14,-46.89 -74.29,-59.35"/>
  <path class="fil0 str0" d="M2462.38 2076.81c33.62,3.51 63.03,11.57 88.23,24.18"/>
  <path class="fil0 str0" d="M2491.7 2081.23c-45.92,58.49 -32.86,88.65 39.2,90.46"/>
  <path class="fil0 str0" d="M2452.39 2074.27c19.16,8.24 24.86,22.41 17.11,42.5"/>
  <circle class="fil0 str0" cx="2837.15" cy="2152.24" r="25.48"/>
  <path class="fil0 str0" d="M2872.94 2226.95c-11.11,-34.35 -14.62,-58.17 -10.51,-71.44"/>
  <path class="fil0 str0" d="M2853.77 2132.92c96.06,31.16 98.4,43.59 7.02,37.28"/>
  <path class="fil0 str0" d="M2923.62 2161c-51.85,-47.76 -68.72,-90.54 -50.6,-128.34"/>
  <path class="fil0 str0" d="M2873 2095.34c443.98,23.98 785.94,112.38 1025.9,265.18"/>
  <path class="fil0 str0" d="M1688.92 1881.4c19.39,118.24 110.5,142.73 273.32,73.46"/>
  <path class="fil0 str0" d="M1814.11 1993.22c162.19,4.44 323.16,7.76 482.87,9.97"/>
  <path class="fil0 str0" d="M1576.61 1532.32c-37.79,138.06 -26.83,236.71 32.88,295.94"/>
  <path class="fil1 str0" d="M3828.29 1029.95c-7.04,527.38 -424.55,958.23 -955.28,1002.7 -9.38,19.56 -9.38,40.46 -0.02,62.69 443.98,23.98 785.94,112.38 1025.9,265.18 -1.8,-5.01 -3.91,-10.44 -6.33,-16.26 -10.11,-12.43 -17.21,-27.4 -20.2,-43.81 -1.03,-5.68 -1.57,-11.54 -1.57,-17.52 0,-53.69 43.52,-97.22 97.22,-97.22 12.89,0 25.2,2.51 36.47,7.07 6.57,2.67 12.79,6.03 18.56,9.99 -69.88,-92.8 -76.49,-164.19 -19.84,-214.18 90.45,-85.11 185.7,-92.61 285.73,-22.5 -18.57,-24.47 -29.58,-54.97 -29.58,-88.05 0,-80.51 65.27,-145.79 145.79,-145.79 65.95,0 121.67,43.79 139.67,103.88 -54.33,-229.46 -17.33,-439.07 110.99,-628.82 -10.58,7.05 -21.29,14.1 -32.14,21.16 -88.26,68.57 -199.15,109.41 -319.58,109.41 -211.88,0 -394.25,-126.41 -475.78,-307.94z"/>
  <path class="fil1 str0" d="M3828.29 1029.95c81.53,181.52 263.9,307.94 475.78,307.94 120.43,0 231.32,-40.84 319.58,-109.41 15.4,-11.97 30.11,-24.78 44.06,-38.36 88.77,-86.43 146.85,-204.24 156.31,-335.51 -133.85,-37.31 -232.05,-160.12 -232.05,-305.86 0,-51.24 12.14,-99.65 33.7,-142.5 -82.02,-64.37 -183.83,-104.69 -294.78,-110.31 -8.89,-0.45 -17.82,-0.68 -26.82,-0.68 -64.38,0 -126.03,11.67 -182.96,33.01 -20.58,10.02 -40.75,19.09 -60.49,27.21 -142.99,75.65 -246.57,215.89 -271.88,381.85 25.82,88.69 39.64,182.31 39.64,279.07 0,4.52 -0.03,9.04 -0.09,13.55z"/>
  <path class="fil1 str0" d="M3788.75 737.33c25.31,-165.97 128.88,-306.2 271.88,-381.85 -142.99,75.66 -246.57,215.89 -271.88,381.85zm-233.8 -408.56c107.81,115.12 188.93,254.4 233.8,408.56 25.82,88.69 39.64,182.31 39.64,279.07 0,4.52 -0.03,9.04 -0.09,13.55 81.53,181.52 263.9,307.94 475.78,307.94 120.43,0 231.32,-40.84 319.58,-109.41 15.4,-11.97 30.11,-24.78 44.06,-38.36 88.77,-86.43 146.85,-204.24 156.31,-335.51 -133.85,-37.31 -232.05,-160.12 -232.05,-305.86 0,-51.24 12.14,-99.65 33.7,-142.5 -82.02,-64.37 -183.83,-104.69 -294.78,-110.31 -8.89,-0.45 -17.82,-0.68 -26.82,-0.68 -64.38,0 -126.03,11.67 -182.96,33.01 -20.58,10.02 -40.75,19.09 -60.49,27.21 -88.07,36.21 -167.75,53.41 -239.02,51.62 -68.19,7.37 -157.07,-18.74 -266.65,-78.33z"/>
  <path class="fil1 str0" d="M4060.62 355.48c19.46,-10.3 39.66,-19.4 60.49,-27.21 56.93,-21.34 118.58,-33.01 182.96,-33.01 9,0 17.93,0.23 26.82,0.68 -65.75,-133.22 -139.32,-192.59 -220.71,-178.09 8.45,87.83 -8.07,167.04 -49.56,237.63z"/>
  <path class="fil1 str0" d="M4625.68 406.25c121.6,95.44 199.72,243.76 199.72,410.33 0,12.79 -0.46,25.47 -1.36,38.03 27.18,7.58 55.84,11.63 85.44,11.63 107.43,0 202.39,-53.35 259.84,-135.01 1.05,-1.5 2.1,-3.01 3.12,-4.52 5.25,-8.24 10.29,-16.47 15.15,-24.69 25.09,-45.44 39.38,-97.69 39.38,-153.27 0,-36.78 -6.25,-72.1 -17.76,-104.95 -6.34,1.37 -12.91,2.1 -19.65,2.1 -50.96,0 -92.26,-41.31 -92.26,-92.26 0,-18.26 5.3,-35.28 14.45,-49.61 -43.69,-36.15 -97.23,-60.84 -156,-69.42 -19.85,-1.17 -40.25,-2.17 -61.19,-3.01 -117.76,5.45 -218.77,75.05 -268.88,174.65z"/>
  <path class="fil0 str0" d="M3710.84 395.06c-633.09,-366.93 -1059.8,-474.86 -1280.12,-323.79"/>
  <path class="fil1 str0" d="M5280.09 371.48c2.83,146.99 -33.76,266.5 -109.76,358.54 -100.84,156.83 -272.35,315.93 -514.53,477.31 -128.33,189.75 -165.32,399.36 -110.99,628.82 48.87,129.55 115.58,196.26 200.14,200.13 2.72,0 5.4,0.15 8.04,0.44 71.63,-3.46 140.23,14.85 205.81,54.92 4.41,2.09 8.52,4.71 12.26,7.77 75.83,9.91 81.98,32.01 18.44,66.3 -8.25,23.09 -30.31,39.61 -56.24,39.61 -12.54,0 -24.17,-3.86 -33.77,-10.46 -7.67,-5.27 -14.04,-12.28 -18.56,-20.47 -33.97,-33.39 -68.97,-45.59 -104.98,-36.58 -25.39,140.57 -51.45,136.72 -78.19,-11.54 -4.15,1.34 -8.41,2.51 -12.77,3.5 -20.06,6.7 -37.63,18.51 -52.73,35.44 -1.23,1.84 -2.67,3.53 -4.29,5.02 -4.94,4.56 -11.55,7.35 -18.8,7.35 -2.32,0 -4.57,-0.28 -6.73,-0.82 -6.93,-1.73 -12.83,-6.06 -16.59,-11.9 -21.61,-16.31 -43.36,-35.89 -65.26,-58.72 -52.96,-20.8 -112.96,-53.24 -180,-97.34 -20.37,-10.07 -38.05,-24.77 -51.67,-42.71 -100.03,-70.11 -195.27,-62.61 -285.73,22.5 -56.64,49.99 -50.03,121.38 19.84,214.18 9.51,6.54 17.8,14.73 24.45,24.16 67.14,46.84 144.51,72.59 232.11,77.24 9.47,0 18.42,2.23 26.35,6.2 87.45,8.41 98.53,33.78 33.23,76.13 13.19,54.3 -6.67,66.12 -59.58,35.46 -17.23,0 -32.73,-7.4 -43.5,-19.18 -27.73,-21.02 -50.13,-11.85 -67.2,27.5 -2.84,10.56 -12.47,18.33 -23.93,18.33 -13.68,0 -24.78,-11.09 -24.78,-24.78 -5.5,-39.17 -46.33,-55.27 -122.47,-48.31 -65.08,81.58 -96.04,90.75 -92.88,27.49 0.24,-4.87 0.69,-10.18 1.34,-15.91 -1.02,-7.03 -3.44,-15.9 -7.28,-26.59 -239.95,-152.8 -581.92,-241.2 -1025.9,-265.18 8.73,20.73 25.6,42.61 50.62,65.66 13.54,9.96 -7.41,13.03 -62.83,9.2 0.31,13.73 4.36,32.65 12.16,56.75 14.4,41.38 6.42,49.94 -23.94,25.68 -39.03,-43.1 -79.18,-69.09 -120.46,-77.98 30.74,117.66 4.69,127.36 -78.16,29.08 -1.22,-0.21 -2.43,-0.45 -3.62,-0.72 -26.4,-4.81 -46.72,1.57 -60.94,19.13 -55.12,115.73 -73.43,98.92 -54.92,-50.45 -55.65,-1.4 -76.12,-19.71 -61.39,-54.93 7.39,-19.16 2.54,-32.93 -14.54,-41.32 -0.88,-0.34 -1.74,-0.73 -2.57,-1.18 -2.16,-1.17 -4.09,-2.71 -5.7,-4.54 -1.83,-2.07 -3.26,-4.51 -4.16,-7.18 -14.79,-23.44 -38.16,-40.83 -70.13,-52.16 -25.64,-2.27 -50.77,-4.68 -75.41,-7.21 -159.72,-2.2 -320.68,-5.53 -482.87,-9.97 -71.06,1.07 -112.79,-36.2 -125.19,-111.82 -38.91,-14.32 -74.15,-29.61 -105.71,-45.87 -192.25,35.63 -498.99,65.88 -920.24,90.77 -59.32,3.5 -120.91,6.91 -184.77,10.2 -3.72,0.38 -7.5,0.58 -11.33,0.58 -10.01,0 -19.7,-1.35 -28.89,-3.87 -123.83,10.19 -196.25,31.55 -217.25,64.07 -9.59,22.54 -3,46.83 19.78,72.88 37.95,43.4 120.81,91.69 248.59,144.84 1.2,0.4 2.39,0.84 3.56,1.31 2.62,1.06 5.15,2.3 7.57,3.7 131.98,64.25 284.57,125.84 457.8,184.75 4.06,1.22 7.93,2.88 11.55,4.94 289.94,125.05 347.58,236.82 172.91,335.31 -2.76,5.19 -6.85,9.58 -11.81,12.7 -99.23,82.4 -116.36,72.92 -51.39,-28.43 0,-12.2 6.51,-22.88 16.24,-28.75 99.81,-64.64 44.23,-127 -166.74,-187.09 -1.59,-0.37 -3.14,-0.82 -4.67,-1.32 -1.09,-0.36 -2.16,-0.76 -3.23,-1.18 -231.35,-84.74 -385.46,-144.36 -462.3,-178.87 -6.92,-1.31 -13.42,-3.79 -19.28,-7.23 -570.13,-215.74 -578.62,-409.94 -25.46,-582.61 13.25,-7.44 28.3,-12.18 44.34,-13.44 209.96,-34.01 499.9,-56.81 869.82,-68.41 51.91,-2.41 109.37,-30.6 172.41,-84.57 6.05,-6.43 12.66,-12.31 19.75,-17.59 16.52,-12.29 35.66,-21.25 56.43,-25.9 6.58,-1.47 13.33,-2.51 20.21,-3.09 49.5,-10.26 91.59,-39.55 126.27,-87.87 34.42,-53.49 40.06,-170.01 16.92,-349.58 58.83,-513.36 289.08,-853.52 690.72,-1020.5 220.32,-151.07 647.03,-43.14 1280.12,323.79 41.56,11.52 78.48,15.53 110.76,12.04 71.27,1.79 150.95,-15.42 239.02,-51.62 41.5,-70.59 58.01,-149.79 49.56,-237.63 81.39,-14.5 154.96,44.86 220.71,178.09 139.75,-47.69 327.64,-69.14 563.66,-64.34 4.94,-0.23 9.91,-0.34 14.91,-0.34 15.72,0 31.17,1.14 46.28,3.35 92.49,5.44 173.12,14.48 241.91,27.12 6.37,0.55 12.56,1.75 18.5,3.54 29.81,8.96 53.27,32.59 61.99,62.51 2.39,8.21 3.67,16.89 3.67,25.86 0,6.11 -0.6,12.08 -1.73,17.85z"/>
  <path class="fil0 str0" d="M1500.43 1575.81c-22.5,113.42 5.09,200 82.77,259.72"/>
  <path class="fil1 str0" d="M1567.2 1822.2c-65.39,-59.01 -87.65,-141.14 -66.77,-246.4 -63.03,53.97 -120.5,82.16 -172.41,84.57 -369.92,11.6 -659.86,34.4 -869.82,68.41 -16.05,1.26 -31.09,6 -44.34,13.44 -553.15,172.68 -544.66,366.88 25.46,582.61 5.87,3.44 12.37,5.92 19.28,7.23 76.84,34.51 230.95,94.13 462.3,178.87 1.07,0.39 2.15,0.78 3.23,1.18 1.56,0.44 3.12,0.88 4.67,1.32 210.97,60.08 266.55,122.45 166.74,187.09 -9.73,5.87 -16.24,16.55 -16.24,28.75 -64.98,101.35 -47.85,110.83 51.39,28.43 4.96,-3.12 9.05,-7.51 11.81,-12.7 174.67,-98.49 117.03,-210.26 -172.91,-335.31 -3.81,-1.64 -7.66,-3.29 -11.55,-4.94 -173.23,-58.91 -325.83,-120.49 -457.8,-184.75 -2.53,-1.23 -5.06,-2.47 -7.57,-3.7 -1.17,-0.47 -2.35,-0.91 -3.56,-1.31 -127.78,-53.16 -210.65,-101.44 -248.59,-144.84 -22.78,-26.05 -29.36,-50.34 -19.78,-72.88 21,-32.53 93.42,-53.88 217.25,-64.07 9.19,2.52 18.88,3.87 28.89,3.87 3.78,-0.19 7.56,-0.39 11.33,-0.58 63.86,-3.29 125.45,-6.69 184.77,-10.2 421.25,-24.89 727.99,-55.14 920.24,-90.77 -5.6,-4.3 -10.93,-8.74 -16.01,-13.33z"/>
  <path class="fil1 str0" d="M500.23 2220.02c-2.53,-1.23 -5.06,-2.47 -7.57,-3.7 2.52,1.23 5.04,2.47 7.57,3.7zm-42.02 -491.23c-16.05,1.26 -31.09,6 -44.34,13.44 -553.15,172.68 -544.66,366.88 25.46,582.61 5.87,3.44 12.37,5.92 19.28,7.23 76.84,34.51 230.95,94.13 462.3,178.87 1.07,0.39 2.15,0.78 3.23,1.18 1.56,0.44 3.12,0.88 4.67,1.32 210.97,60.08 266.55,122.45 166.74,187.09 -9.73,5.87 -16.24,16.55 -16.24,28.75 -64.98,101.35 -47.85,110.83 51.39,28.43 4.96,-3.12 9.05,-7.51 11.81,-12.7 174.67,-98.49 117.03,-210.26 -172.91,-335.31 -3.81,-1.64 -7.66,-3.29 -11.55,-4.94 -173.23,-58.91 -325.83,-120.49 -457.8,-184.75 -2.42,-1.4 -4.95,-2.64 -7.57,-3.7 -1.17,-0.47 -2.35,-0.91 -3.56,-1.31 -127.78,-53.16 -210.65,-101.44 -248.59,-144.84 -22.78,-26.05 -29.36,-50.34 -19.78,-72.88 21,-32.53 93.42,-53.88 217.25,-64.07 9.19,2.52 18.88,3.87 28.89,3.87 3.78,-0.19 7.56,-0.39 11.33,-0.58 63.86,-3.29 125.45,-6.69 184.77,-10.2 421.25,-24.89 727.99,-55.14 920.24,-90.77 -5.6,-4.3 -10.93,-8.74 -16.01,-13.33 -65.39,-59.01 -87.65,-141.14 -66.77,-246.4 -63.03,53.97 -120.5,82.16 -172.41,84.57 -369.92,11.6 -659.86,34.4 -869.82,68.41z"/>
  <path class="fil1 str0" d="M500.23 2220.02c-2.53,-1.23 -5.06,-2.47 -7.57,-3.7 2.52,1.23 5.04,2.47 7.57,3.7zm-42.02 -491.23c-16.05,1.26 -31.09,6 -44.34,13.44 -553.15,172.68 -544.66,366.88 25.46,582.61 5.87,3.44 12.37,5.92 19.28,7.23 76.84,34.51 230.95,94.13 462.3,178.87 1.07,0.39 2.15,0.78 3.23,1.18 1.56,0.44 3.12,0.88 4.67,1.32 210.97,60.08 266.55,122.45 166.74,187.09 -9.73,5.87 -16.24,16.55 -16.24,28.75 -64.98,101.35 -47.85,110.83 51.39,28.43 4.96,-3.12 9.05,-7.51 11.81,-12.7 174.67,-98.49 117.03,-210.26 -172.91,-335.31 -3.81,-1.64 -7.66,-3.29 -11.55,-4.94 -173.23,-58.91 -325.83,-120.49 -457.8,-184.75 -2.42,-1.4 -4.95,-2.64 -7.57,-3.7 -1.17,-0.47 -2.35,-0.91 -3.56,-1.31 -127.78,-53.16 -210.65,-101.44 -248.59,-144.84 -22.78,-26.05 -29.36,-50.34 -19.78,-72.88 21,-32.53 93.42,-53.88 217.25,-64.07 9.19,2.52 18.88,3.87 28.89,3.87 3.78,-0.19 7.56,-0.39 11.33,-0.58 63.86,-3.29 125.45,-6.69 184.77,-10.2 421.25,-24.89 727.99,-55.14 920.24,-90.77 -5.6,-4.3 -10.93,-8.74 -16.01,-13.33 -65.39,-59.01 -87.65,-141.14 -66.77,-246.4 -63.03,53.97 -120.5,82.16 -172.41,84.57 -369.92,11.6 -659.86,34.4 -869.82,68.41z"/>
  <path class="fil1 str0" d="M500.23 2220.02c-2.53,-1.23 -5.06,-2.47 -7.57,-3.7 2.52,1.23 5.04,2.47 7.57,3.7zm642.27 524.99c174.67,-98.49 117.03,-210.26 -172.91,-335.31 -3.81,-1.64 -7.66,-3.29 -11.55,-4.94 -173.23,-58.91 -325.83,-120.49 -457.8,-184.75 -2.42,-1.4 -4.95,-2.64 -7.57,-3.7 -1.17,-0.47 -2.35,-0.91 -3.56,-1.31 -127.78,-53.16 -210.65,-101.44 -248.59,-144.84 -22.78,-26.05 -29.36,-50.34 -19.78,-72.88 21,-32.53 93.42,-53.88 217.25,-64.07 9.19,2.52 18.88,3.87 28.89,3.87 3.78,-0.19 7.56,-0.39 11.33,-0.58 63.86,-3.29 125.45,-6.69 184.77,-10.2 421.25,-24.89 727.99,-55.14 920.24,-90.77 -5.6,-4.3 -10.93,-8.74 -16.01,-13.33 -65.39,-59.01 -87.65,-141.14 -66.77,-246.4 -63.03,53.97 -120.5,82.16 -172.41,84.57 -369.92,11.6 -659.86,34.4 -869.82,68.41 -16.05,1.26 -31.09,6 -44.34,13.44 -553.15,172.68 -544.66,366.88 25.46,582.61 5.87,3.44 12.37,5.92 19.28,7.23 76.84,34.51 230.95,94.13 462.3,178.87 1.07,0.39 2.15,0.78 3.23,1.18 1.56,0.44 3.12,0.88 4.67,1.32 210.97,60.08 266.55,122.45 166.74,187.09 -9.73,5.87 -16.24,16.55 -16.24,28.75 -64.98,101.35 -47.85,110.83 51.39,28.43 4.96,-3.12 9.05,-7.51 11.81,-12.7z"/>
  <path class="fil2 str0" d="M478.2 1936.5c63.86,-3.29 125.45,-6.69 184.77,-10.2 421.25,-24.89 727.99,-55.14 920.24,-90.77 -5.6,-4.3 -10.93,-8.74 -16.01,-13.33 -65.39,-59.01 -87.65,-141.14 -66.77,-246.4 -63.03,53.97 -120.5,82.16 -172.41,84.57 -369.92,11.6 -659.86,34.4 -869.82,68.41 -16.05,1.26 -31.09,6 -44.34,13.44 -553.15,172.68 -544.66,366.88 25.46,582.61 5.87,3.44 12.37,5.92 19.28,7.23 76.84,34.51 230.95,94.13 462.3,178.87 1.07,0.39 2.15,0.78 3.23,1.18 1.56,0.44 3.12,0.88 4.67,1.32 210.97,60.08 266.55,122.45 166.74,187.09 -9.73,5.87 -16.24,16.55 -16.24,28.75 -64.98,101.35 -47.85,110.83 51.39,28.43 4.96,-3.12 9.05,-7.51 11.81,-12.7 174.67,-98.49 117.03,-210.26 -172.91,-335.31 -3.81,-1.64 -7.66,-3.29 -11.55,-4.94 -173.23,-58.91 -325.83,-120.49 -457.8,-184.75 -2.53,-1.23 -5.06,-2.47 -7.57,-3.7 -1.17,-0.47 -2.35,-0.91 -3.56,-1.31 -127.78,-53.16 -210.65,-101.44 -248.59,-144.84 -22.78,-26.05 -29.36,-50.34 -19.78,-72.88 21,-32.53 93.42,-53.88 217.25,-64.07 9.19,2.52 18.88,3.87 28.89,3.87 3.78,-0.19 7.56,-0.39 11.33,-0.58z"/>
  <g>
   <path class="fil3" d="M4021.39 768.68c42.06,25.18 81.9,53.6 119.5,85.24l-119.5 -85.24zm119.5 85.24c173.13,25.25 245.86,21.3 218.21,-11.86 16.03,-210.47 -51.22,-312.85 -201.75,-307.13l-16.46 318.99zm16.46 -318.99c-68.11,3.54 -106.27,9.91 -114.49,19.08l114.49 -19.08zm-114.49 19.08c-100.58,93.21 -107.74,164.77 -21.47,214.67l21.47 -214.67zm121.33 149.42c-39.67,-40.23 -63.39,-85.61 -71.16,-136.13 73.02,0.13 118.74,19.72 137.16,58.78 30.87,47.95 58.03,63.42 81.47,46.41 7.42,67.04 4.67,123.75 -8.25,170.16 -24.52,-72.68 -70.93,-119.08 -139.22,-139.22z"/>
   <path id="_1" class="fil0 str0" d="M4021.39 768.68c42.06,25.18 81.9,53.6 119.5,85.24m0 0c173.13,25.25 245.86,21.3 218.21,-11.86 16.03,-210.47 -51.22,-312.85 -201.75,-307.13m0 0c-68.11,3.54 -106.27,9.91 -114.49,19.08m0 0c-100.58,93.21 -107.74,164.77 -21.47,214.67m142.79 -65.25c-39.67,-40.23 -63.39,-85.61 -71.16,-136.13 73.02,0.13 118.74,19.72 137.16,58.78 30.87,47.95 58.03,63.42 81.47,46.41 7.42,67.04 4.67,123.75 -8.25,170.16 -24.52,-72.68 -70.93,-119.08 -139.22,-139.22z"/>
  </g>
  <path class="fil4 str0" d="M4164.19 703.43c68.29,20.14 114.7,66.55 139.22,139.22 12.92,-46.4 15.66,-103.12 8.25,-170.16 -23.44,17.01 -50.6,1.54 -81.47,-46.41 -18.42,-39.06 -64.14,-58.66 -137.16,-58.78 7.76,50.52 31.48,95.9 71.16,136.13z"/>
  <path class="fil2 str0" d="M4303.41 842.65c-24.52,-72.68 -70.93,-119.08 -139.22,-139.22 -39.67,-40.23 -63.39,-85.61 -71.16,-136.13 73.02,0.13 118.74,19.72 137.16,58.78 30.87,47.95 58.03,63.42 81.47,46.41 7.42,67.04 4.67,123.75 -8.25,170.16zm-282.02 -73.97c42.06,25.18 81.9,53.6 119.5,85.24 173.13,25.25 245.86,21.3 218.21,-11.86 16.03,-210.47 -51.22,-312.85 -201.75,-307.13 -68.11,3.54 -106.27,9.91 -114.49,19.08 -100.58,93.21 -107.74,164.77 -21.47,214.67z"/>
  <path class="fil0 str0" d="M4330.9 295.94c-101.93,22.18 -192.02,42.02 -270.27,59.54"/>
  <path class="fil4 str1" d="M4060.62 355.48c78.26,-17.52 168.35,-37.37 270.27,-59.54 -65.75,-133.22 -139.32,-192.59 -220.71,-178.09 8.45,87.83 -8.07,167.04 -49.56,237.63z"/>
  <path class="fil0 str0" d="M5175 257.75c-126.25,56.16 -91.53,112.93 104.16,170.31"/>
  <path class="fil4 str1" d="M5109.06 301.82c-6.47,8.64 -9.17,17.3 -8.1,25.97 2.82,22.9 31.94,45.9 87.35,69 18.7,7.8 40.4,15.61 65.1,23.43 8.25,2.61 16.83,5.23 25.75,7.84 1,-18.38 1.31,-37.24 0.93,-56.58 1.13,-5.77 1.73,-11.74 1.73,-17.85 0,-8.98 -1.28,-17.66 -3.67,-25.86 -8.72,-29.91 -32.18,-53.55 -61.99,-62.51 -6.07,-1.21 -12.24,-2.39 -18.5,-3.54 -7.42,-1.36 -14.97,-2.68 -22.66,-3.97 -11.13,4.95 -21.02,9.91 -29.65,14.87 -1.98,1.14 -3.88,2.27 -5.73,3.41 -13.93,8.58 -24.11,17.18 -30.56,25.79z"/>
  <ellipse class="fil0 str0" transform="matrix(0.914328 -0.404974 0.404974 0.914328 4668.24 557.937)" rx="109.43" ry="79.3"/>
  <path class="fil3 str1" d="M4768.29 513.62c-11.24,-25.39 -39.14,-39.75 -72.13,-40.63 -19.05,-0.51 -39.8,3.48 -60.03,12.44 -16.5,7.31 -30.79,17.1 -42.24,28.31 -26.89,26.32 -38.13,60.43 -25.69,88.51 6.76,15.25 19.53,26.53 35.8,33.29 26.45,10.99 62.16,10.06 96.37,-5.1 30.05,-13.31 52.76,-34.85 64.37,-58.18 9.73,-19.56 11.66,-40.37 3.57,-58.64z"/>
  <circle class="fil5 str2" cx="4712.47" cy="544.41" r="20.57"/>
  <path class="fil0 str0" d="M5238.61 616.3c-61.47,78.63 -123.37,136.15 -185.7,172.57"/>
  <path class="fil0 str0" d="M2873 2095.34c-132.65,-137.2 -161.19,-287.2 -85.64,-450"/>
  <path class="fil0 str0" d="M4520.6 2106.15c18.56,-51.26 56.69,-91.05 114.39,-119.38"/>
  <path class="fil6 str1" d="M4634.99 1986.77c-57.7,28.33 -95.83,68.13 -114.39,119.38 21.9,22.83 43.64,42.41 65.26,58.72 3.76,5.84 9.66,10.17 16.59,11.9 2.15,0.54 4.41,0.82 6.73,0.82 7.25,0 13.86,-2.79 18.8,-7.35 1.41,-1.72 2.83,-3.4 4.29,-5.02 15.1,-16.93 32.67,-28.74 52.73,-35.44 4.15,-1.39 8.41,-2.55 12.77,-3.5 26.74,148.26 52.8,152.1 78.19,11.54 36.01,-9.01 71.01,3.18 104.98,36.58 4.51,8.19 10.89,15.2 18.56,20.47 9.6,6.59 21.23,10.46 33.77,10.46 25.93,0 47.99,-16.52 56.24,-39.61 63.54,-34.28 57.4,-56.39 -18.44,-66.3 -4.08,-2.68 -8.16,-5.26 -12.26,-7.76 -65.58,-40.07 -134.18,-58.38 -205.81,-54.92 -2.63,-0.29 -5.31,-0.44 -8.04,-0.44 -40.81,-1.86 -77.46,-18.37 -109.96,-49.51z"/>
  <path class="fil0 str0" d="M3781.45 2294.84c2.52,-97.71 72.8,-143.91 210.85,-138.59"/>
  <path class="fil6 str1" d="M3992.3 2156.25c-138.05,-5.31 -208.33,40.88 -210.85,138.59 41.54,20.38 80.69,42.27 117.45,65.68 3.83,10.7 6.26,19.56 7.28,26.59 -0.65,5.73 -1.1,11.03 -1.34,15.91 -3.16,63.26 27.8,54.09 92.88,-27.49 76.15,-6.96 116.97,9.14 122.47,48.31 0,13.68 11.09,24.78 24.78,24.78 11.46,0 21.09,-7.77 23.93,-18.33 17.07,-39.35 39.47,-48.52 67.2,-27.5 10.77,11.79 26.27,19.18 43.5,19.18 52.91,30.66 72.77,18.84 59.58,-35.46 65.3,-42.35 54.22,-67.73 -33.23,-76.13 -7.93,-3.97 -16.88,-6.2 -26.35,-6.2 -87.6,-4.65 -164.97,-30.4 -232.11,-77.24 -6.65,-9.43 -14.94,-17.61 -24.45,-24.16 -12.17,-16.16 -22.42,-31.67 -30.74,-46.53z"/>
  <path class="fil0 str0" d="M2444.25 2066.36c108.2,-120.31 223,-148.41 344.41,-84.32"/>
  <path class="fil6 str1" d="M2788.66 1982.04c-103.78,-54.79 -202.73,-42.21 -296.86,37.74 -6.53,5.55 -13.03,11.41 -19.52,17.61 -9.28,8.86 -18.51,18.39 -27.69,28.59 0.72,1.24 1.42,2.5 2.09,3.77 1.62,1.82 3.54,3.37 5.7,4.54 0.88,0.38 1.74,0.77 2.57,1.18 17.09,8.39 21.93,22.16 14.54,41.32 -14.73,35.22 5.74,53.53 61.39,54.93 -18.51,149.37 -0.21,166.18 54.92,50.45 14.23,-17.56 34.54,-23.94 60.94,-19.13 1.2,0.22 2.4,0.46 3.62,0.72 82.85,98.28 108.91,88.58 78.16,-29.08 41.28,8.89 81.43,34.88 120.46,77.98 30.37,24.26 38.35,15.7 23.94,-25.68 -7.8,-24.1 -11.85,-43.02 -12.16,-56.75 55.43,3.83 76.37,0.76 62.83,-9.2 -25.01,-23.04 -41.89,-44.93 -50.62,-65.66 -35.62,-36.84 -63.74,-74.61 -84.34,-113.3z"/>
 </g>
</svg>
